<svg version="1.1" id="Layer_1" xmlns="http://www.w3.org/2000/svg" xmlns:xlink="http://www.w3.org/1999/xlink" x="0px" y="0px"
	 width="100%" viewBox="0 0 200 200" enable-background="new 0 0 200 200" xml:space="preserve">
<path fill="#010101" opacity="1.000000" stroke="none" 
	d="
M131.000000,201.000000 
	C87.333336,201.000000 44.166672,201.000000 1.000006,201.000000 
	C1.000004,134.333344 1.000004,67.666679 1.000002,1.000015 
	C67.666656,1.000010 134.333313,1.000010 200.999969,1.000005 
	C200.999985,67.666649 200.999985,134.333298 201.000000,200.999969 
	C177.833328,201.000000 154.666672,201.000000 131.000000,201.000000 
M132.596069,111.876289 
	C132.679077,127.266960 132.762085,142.657639 132.563751,158.752808 
	C132.656464,159.492493 132.749161,160.232193 132.670471,161.545609 
	C132.803162,161.694687 132.935852,161.843781 133.487000,162.739761 
	C148.097198,162.739761 162.707413,162.739761 177.595673,162.739761 
	C177.595673,123.260109 177.595673,84.190865 177.595673,44.797077 
	C126.462334,44.797077 75.404427,44.797077 24.231186,44.797077 
	C24.231186,59.868061 24.231186,74.754448 24.231186,89.994186 
	C34.848522,89.994186 45.146355,89.994186 55.444187,89.994186 
	C65.903664,89.994186 76.363144,89.994186 86.792870,89.994186 
	C87.417747,104.128868 76.092918,116.478920 61.874687,117.046181 
	C51.062809,117.477539 40.222183,117.188911 29.394348,117.218903 
	C27.647949,117.223740 25.901527,117.219574 24.154514,117.219574 
	C24.154514,132.780777 24.154514,147.551147 24.154514,162.865616 
	C35.338554,162.865616 46.285961,162.872574 57.233360,162.864349 
	C94.510918,162.836334 122.091530,141.205475 131.544098,104.947586 
	C131.873672,105.062859 132.203232,105.178131 132.531174,106.107391 
	C132.637756,107.726028 132.744324,109.344658 132.596069,111.876289 
z"/>
<path fill="#D4DFEE" opacity="1.000000" stroke="none" 
	d="
M132.841873,160.971878 
	C132.749161,160.232193 132.656464,159.492493 133.004608,158.101685 
	C133.621887,156.818573 133.950623,156.186996 133.952301,155.554535 
	C133.988983,141.739365 134.014206,127.923981 133.947113,114.109100 
	C133.942001,113.058754 133.232803,112.011818 132.850891,110.963295 
	C132.744324,109.344658 132.637756,107.726028 132.703461,105.289864 
	C132.875732,102.364883 132.875732,100.257439 132.875732,98.149986 
	C132.551651,98.104431 132.227554,98.058876 131.903473,98.013313 
	C131.606186,100.345032 131.308899,102.676750 131.011597,105.008469 
	C122.091530,141.205475 94.510918,162.836334 57.233360,162.864349 
	C46.285961,162.872574 35.338554,162.865616 24.154514,162.865616 
	C24.154514,147.551147 24.154514,132.780777 24.154514,117.219574 
	C25.901527,117.219574 27.647949,117.223740 29.394348,117.218903 
	C40.222183,117.188911 51.062809,117.477539 61.874687,117.046181 
	C76.092918,116.478920 87.417747,104.128868 86.792870,89.994186 
	C76.363144,89.994186 65.903664,89.994186 55.444187,89.994186 
	C45.146355,89.994186 34.848522,89.994186 24.231186,89.994186 
	C24.231186,74.754448 24.231186,59.868061 24.231186,44.797077 
	C75.404427,44.797077 126.462334,44.797077 177.595673,44.797077 
	C177.595673,84.190865 177.595673,123.260109 177.595673,162.739761 
	C162.707413,162.739761 148.097198,162.739761 133.398941,162.238464 
	C133.154541,161.482056 132.998215,161.226974 132.841873,160.971878 
M73.324898,62.773678 
	C71.702522,61.550495 70.080139,60.327312 68.457764,59.104130 
	C67.236954,61.093792 66.016151,63.083454 64.118912,64.928680 
	C62.522800,64.144066 60.983898,62.866074 59.319191,62.673058 
	C55.315392,62.208828 52.492741,64.037399 51.815380,68.216476 
	C51.191265,72.067055 52.307747,75.358902 56.316814,76.589905 
	C60.281479,77.807274 63.373253,76.530678 65.365601,71.460075 
	C63.584732,71.937729 62.638573,72.290955 61.661770,72.432091 
	C59.818363,72.698448 57.957317,72.842735 56.103603,73.037750 
	C56.055332,70.879143 56.007057,68.720528 55.958786,66.561928 
	C57.801254,66.631454 59.981068,66.097473 61.414520,66.898727 
	C64.220802,68.467339 64.983406,67.952126 65.546394,64.918533 
	C69.315178,66.095726 67.675133,69.243355 67.796532,71.583115 
	C67.975082,75.024361 68.780350,77.463104 73.758842,76.997353 
	C74.604942,76.950905 75.451050,76.904449 77.107002,76.881149 
	C77.778542,75.670685 78.803780,74.527802 79.050552,73.236183 
	C79.625618,70.226227 77.830795,65.368484 82.705566,65.469940 
	C87.623344,65.572304 85.471466,70.467216 85.997215,73.432449 
	C86.203529,74.596100 86.435333,75.755234 86.655525,76.916420 
	C87.259460,76.918495 87.863403,76.920563 88.467339,76.922630 
	C89.520668,73.273628 89.645180,69.391228 88.375587,65.664612 
	C87.254509,62.373901 84.301941,62.322983 81.266396,62.849716 
	C79.564812,63.144974 77.782669,62.975925 75.389786,62.980164 
	C74.958214,62.973793 74.526634,62.967422 73.324898,62.773678 
M104.555962,65.531158 
	C103.757500,64.952187 103.005463,64.291145 102.152428,63.808681 
	C98.758049,61.888889 94.816856,61.507305 92.772072,64.844994 
	C91.337204,67.187126 90.968277,71.563507 92.265717,73.773994 
	C93.360985,75.640022 97.690269,76.713783 100.315674,76.320274 
	C104.400955,75.707962 105.304352,71.990875 104.897179,68.118179 
	C104.778419,66.988693 104.895035,65.834465 105.618683,65.041862 
	C106.765717,68.145615 107.750702,71.324936 109.144394,74.313667 
	C109.658134,75.415382 111.055954,76.554688 112.203568,76.742661 
	C112.894623,76.855858 114.194130,75.312363 114.673088,74.263504 
	C115.938705,71.491959 116.906128,68.584236 118.645073,66.047150 
	C119.302483,66.924660 119.959892,67.802170 120.009361,67.868195 
	C119.256905,70.252396 117.670898,72.634163 118.296043,74.014526 
	C118.968094,75.498466 121.651344,76.651649 123.572243,76.853653 
	C126.436150,77.154831 129.401016,76.495834 132.313095,76.240891 
	C131.939560,73.903847 131.356720,71.577736 131.234024,69.227592 
	C130.934784,63.497002 127.894989,61.324253 122.261467,62.913235 
	C120.991486,63.271442 119.608124,63.227718 117.952782,62.913155 
	C116.865356,63.766182 115.418221,64.409386 114.770889,65.519119 
	C113.671982,67.403000 113.077271,69.580978 111.864685,72.669342 
	C110.601479,69.230942 109.917732,66.876717 108.885323,64.686859 
	C107.649612,62.065784 106.172218,61.169075 104.555962,65.531158 
M35.059914,72.535225 
	C34.690151,73.862671 34.320389,75.190109 33.845119,76.896332 
	C38.394054,77.126343 38.178211,69.869225 42.883129,72.170654 
	C45.607693,73.503387 48.127243,75.255249 52.035172,77.594246 
	C49.447636,70.663307 47.499985,65.204643 45.324593,59.838299 
	C44.924728,58.851891 43.422459,57.470280 42.743809,57.627739 
	C41.601318,57.892830 40.280304,59.056957 39.793011,60.173889 
	C38.134361,63.975716 36.807159,67.922150 35.059914,72.535225 
z"/>
<path fill="#E1E8EF" opacity="1.000000" stroke="none" 
	d="
M132.723480,111.419792 
	C133.232803,112.011818 133.942001,113.058754 133.947113,114.109100 
	C134.014206,127.923981 133.988983,141.739365 133.952301,155.554535 
	C133.950623,156.186996 133.621887,156.818573 133.145264,157.749435 
	C132.762085,142.657639 132.679077,127.266960 132.723480,111.419792 
z"/>
<path fill="#6E7275" opacity="1.000000" stroke="none" 
	d="
M131.277863,104.978027 
	C131.308899,102.676750 131.606186,100.345032 131.903473,98.013313 
	C132.227554,98.058876 132.551651,98.104431 132.875732,98.149986 
	C132.875732,100.257439 132.875732,102.364883 132.704269,104.882874 
	C132.203232,105.178131 131.873672,105.062859 131.277863,104.978027 
z"/>
<path fill="#E1E8EF" opacity="1.000000" stroke="none" 
	d="
M132.756165,161.258743 
	C132.998215,161.226974 133.154541,161.482056 133.189728,161.865021 
	C132.935852,161.843781 132.803162,161.694687 132.756165,161.258743 
z"/>
<path fill="#212426" opacity="1.000000" stroke="none" 
	d="
M35.206665,72.174301 
	C36.807159,67.922150 38.134361,63.975716 39.793011,60.173889 
	C40.280304,59.056957 41.601318,57.892830 42.743809,57.627739 
	C43.422459,57.470280 44.924728,58.851891 45.324593,59.838299 
	C47.499985,65.204643 49.447636,70.663307 52.035172,77.594246 
	C48.127243,75.255249 45.607693,73.503387 42.883129,72.170654 
	C38.178211,69.869225 38.394054,77.126343 33.845119,76.896332 
	C34.320389,75.190109 34.690151,73.862671 35.206665,72.174301 
z"/>
<path fill="#25282B" opacity="1.000000" stroke="none" 
	d="
M118.276955,63.369019 
	C119.608124,63.227718 120.991486,63.271442 122.261467,62.913235 
	C127.894989,61.324253 130.934784,63.497002 131.234024,69.227592 
	C131.356720,71.577736 131.939560,73.903847 132.318008,76.243134 
	C129.401016,76.495834 126.436150,77.154831 123.572243,76.853653 
	C121.651344,76.651649 118.968094,75.498466 118.296043,74.014526 
	C117.670898,72.634163 119.256905,70.252396 120.009361,67.868195 
	C119.959892,67.802170 119.302483,66.924660 118.339745,65.492424 
	C118.115265,64.414803 118.196114,63.891911 118.276955,63.369019 
z"/>
<path fill="#1A1D21" opacity="1.000000" stroke="none" 
	d="
M104.903755,64.691574 
	C104.895035,65.834465 104.778419,66.988693 104.897179,68.118179 
	C105.304352,71.990875 104.400955,75.707962 100.315674,76.320274 
	C97.690269,76.713783 93.360985,75.640022 92.265717,73.773994 
	C90.968277,71.563507 91.337204,67.187126 92.772072,64.844994 
	C94.816856,61.507305 98.758049,61.888889 102.152428,63.808681 
	C103.005463,64.291145 103.757500,64.952187 104.760284,65.137123 
	C104.964600,64.743088 104.903755,64.691574 104.903755,64.691574 
M99.759857,65.702545 
	C97.894211,66.427734 95.345932,66.672630 94.386902,68.035698 
	C93.667580,69.058067 94.542618,71.865471 95.577377,73.207886 
	C96.189796,74.002388 99.547310,74.038277 99.840111,73.470833 
	C100.770561,71.667625 100.890480,69.428368 101.198204,67.339142 
	C101.249702,66.989471 100.675926,66.547699 99.759857,65.702545 
z"/>
<path fill="#1E2225" opacity="1.000000" stroke="none" 
	d="
M64.661278,64.943764 
	C64.983406,67.952126 64.220802,68.467339 61.414520,66.898727 
	C59.981068,66.097473 57.801254,66.631454 55.958786,66.561920 
	C56.007057,68.720528 56.055332,70.879143 56.103603,73.037750 
	C57.957317,72.842735 59.818363,72.698448 61.661770,72.432091 
	C62.638573,72.290955 63.584732,71.937729 65.365601,71.460075 
	C63.373253,76.530678 60.281479,77.807274 56.316814,76.589905 
	C52.307747,75.358902 51.191265,72.067055 51.815380,68.216476 
	C52.492741,64.037399 55.315392,62.208828 59.319191,62.673058 
	C60.983898,62.866074 62.522800,64.144066 64.424973,64.967155 
	C64.731026,65.005630 64.661278,64.943764 64.661278,64.943764 
z"/>
<path fill="#1A1D21" opacity="1.000000" stroke="none" 
	d="
M76.036819,63.016079 
	C77.782669,62.975925 79.564812,63.144974 81.266396,62.849716 
	C84.301941,62.322983 87.254509,62.373901 88.375587,65.664612 
	C89.645180,69.391228 89.520668,73.273628 88.467339,76.922630 
	C87.863403,76.920563 87.259460,76.918495 86.655525,76.916420 
	C86.435333,75.755234 86.203529,74.596100 85.997215,73.432449 
	C85.471466,70.467216 87.623344,65.572304 82.705566,65.469940 
	C77.830795,65.368484 79.625618,70.226227 79.050552,73.236183 
	C78.803780,74.527802 77.778542,75.670685 76.617599,76.420631 
	C76.097740,71.645432 76.067276,67.330757 76.036819,63.016079 
z"/>
<path fill="#212426" opacity="1.000000" stroke="none" 
	d="
M118.114868,63.141087 
	C118.196114,63.891911 118.115265,64.414803 118.013336,65.334213 
	C116.906128,68.584236 115.938705,71.491959 114.673088,74.263504 
	C114.194130,75.312363 112.894623,76.855858 112.203568,76.742661 
	C111.055954,76.554688 109.658134,75.415382 109.144394,74.313667 
	C107.750702,71.324936 106.765717,68.145615 105.261215,64.866714 
	C104.903755,64.691574 104.964600,64.743088 104.975693,64.775398 
	C106.172218,61.169075 107.649612,62.065784 108.885323,64.686859 
	C109.917732,66.876717 110.601479,69.230942 111.864685,72.669342 
	C113.077271,69.580978 113.671982,67.403000 114.770889,65.519119 
	C115.418221,64.409386 116.865356,63.766182 118.114868,63.141087 
z"/>
<path fill="#15181B" opacity="1.000000" stroke="none" 
	d="
M64.763184,65.039375 
	C66.016151,63.083454 67.236954,61.093792 68.457764,59.104130 
	C70.080139,60.327312 71.702522,61.550495 73.731903,63.284103 
	C69.695824,67.433784 69.664787,69.569710 73.729584,74.514183 
	C74.019608,74.866982 73.209633,76.124077 72.911125,76.960701 
	C68.780350,77.463104 67.975082,75.024361 67.796532,71.583115 
	C67.675133,69.243355 69.315178,66.095726 65.103836,64.931152 
	C64.661278,64.943764 64.731026,65.005630 64.763184,65.039375 
z"/>
<path fill="#C2CAD1" opacity="1.000000" stroke="none" 
	d="
M73.334984,76.979027 
	C73.209633,76.124077 74.019608,74.866982 73.729584,74.514183 
	C69.664787,69.569710 69.695824,67.433784 74.116982,63.377792 
	C74.526634,62.967422 74.958214,62.973793 75.713303,62.998123 
	C76.067276,67.330757 76.097740,71.645432 76.212677,76.409058 
	C75.451050,76.904449 74.604942,76.950905 73.334984,76.979027 
z"/>
<path fill="#CAD3DC" opacity="1.000000" stroke="none" 
	d="
M100.075470,65.925514 
	C100.675926,66.547699 101.249702,66.989471 101.198204,67.339142 
	C100.890480,69.428368 100.770561,71.667625 99.840111,73.470833 
	C99.547310,74.038277 96.189796,74.002388 95.577377,73.207886 
	C94.542618,71.865471 93.667580,69.058067 94.386902,68.035698 
	C95.345932,66.672630 97.894211,66.427734 100.075470,65.925514 
z"/>
</svg>